<?xml version="1.0" standalone="no"?>
<!DOCTYPE svg PUBLIC "-//W3C//DTD SVG 20010904//EN"
 "http://www.w3.org/TR/2001/REC-SVG-20010904/DTD/svg10.dtd">
<svg version="1.0" xmlns="http://www.w3.org/2000/svg"
 width="360.000000pt" height="360.000000pt" viewBox="0 0 360.000000 360.000000"
 preserveAspectRatio="xMidYMid meet">
<metadata>
Created by potrace 1.14, written by Peter Selinger 2001-2017
</metadata>
<g transform="translate(0.000000,360.000000) scale(0.100000,-0.100000)"
fill="#000000" stroke="none">
<path d="M0 1800 l0 -1800 1800 0 1800 0 0 1800 0 1800 -1800 0 -1800 0 0
-1800z m2000 1409 c63 -6 117 -14 120 -17 3 -4 57 -17 120 -30 63 -13 117 -26
120 -30 6 -8 55 -25 118 -42 23 -6 42 -15 42 -20 0 -6 7 -10 15 -10 9 0 18 -7
21 -15 4 -8 15 -15 25 -15 10 0 27 -8 37 -17 17 -18 31 -25 105 -57 20 -10 37
-21 37 -27 0 -5 18 -16 40 -25 22 -9 45 -25 51 -36 6 -10 21 -23 35 -28 13 -5
27 -17 31 -27 8 -21 54 -62 69 -63 6 0 16 -11 22 -25 6 -14 16 -25 22 -25 5 0
16 -13 25 -30 9 -16 22 -30 31 -30 8 0 19 -11 24 -25 5 -14 14 -25 20 -25 5 0
10 -5 10 -11 0 -21 32 -79 45 -79 6 0 18 -18 25 -40 10 -32 11 -42 0 -55 -7
-8 -17 -15 -23 -15 -5 0 -27 -18 -48 -40 -21 -22 -45 -40 -53 -40 -9 0 -20 -9
-26 -20 -6 -11 -17 -20 -24 -20 -8 0 -19 -7 -26 -15 -7 -8 -21 -15 -31 -15
-10 0 -22 -6 -26 -13 -4 -8 -36 -25 -70 -38 -35 -13 -63 -27 -63 -30 0 -4 -34
-18 -75 -30 -41 -13 -75 -29 -75 -35 0 -24 -177 -49 -345 -49 -174 0 -345 25
-345 51 0 7 -25 20 -55 29 -31 9 -58 22 -62 30 -3 8 -11 15 -19 15 -7 0 -29 9
-49 20 -20 11 -42 20 -50 20 -8 0 -15 4 -15 9 0 10 -56 41 -74 41 -6 0 -24 12
-41 26 -16 14 -42 28 -57 31 -15 3 -29 11 -32 19 -3 8 -12 14 -21 14 -8 0 -15
4 -15 9 0 5 -26 19 -57 31 -32 12 -60 25 -63 29 -3 4 -22 12 -44 18 -39 12
-86 3 -86 -17 0 -5 -6 -10 -12 -10 -16 0 -102 -42 -106 -52 -2 -5 -10 -8 -17
-8 -8 0 -20 -6 -27 -13 -7 -7 -40 -19 -73 -27 -33 -8 -63 -19 -67 -24 -11 -16
-280 -14 -286 2 -2 7 -12 12 -22 12 -23 0 -70 20 -88 37 -7 7 -18 13 -23 13
-5 0 -29 20 -53 45 -25 25 -49 45 -54 45 -5 0 -15 11 -22 25 -10 20 -11 32 0
70 7 26 19 45 27 45 7 0 18 10 23 23 5 12 20 33 34 46 14 13 26 27 26 32 0 5
7 9 15 9 8 0 15 3 15 8 0 12 76 92 88 92 7 0 12 6 12 14 0 8 12 24 28 35 15
12 32 25 39 31 7 5 16 10 21 10 5 0 17 9 27 20 10 11 24 20 32 20 7 0 13 4 13
9 0 5 25 21 55 35 30 14 55 29 55 34 0 6 15 13 33 16 18 3 40 15 50 26 9 11
26 20 37 20 11 0 20 4 20 8 0 5 33 20 73 33 39 13 74 26 77 30 5 5 117 33 185
45 22 4 42 11 46 15 15 24 394 35 579 18z m-620 -1589 c0 -5 14 -10 31 -10 41
0 163 -22 169 -30 3 -4 46 -20 95 -35 50 -16 93 -32 96 -37 8 -13 59 -38 75
-38 8 0 17 -6 20 -14 3 -8 28 -24 55 -35 27 -12 49 -27 49 -34 0 -12 46 -37
98 -52 12 -3 22 -10 22 -14 0 -5 15 -14 33 -21 49 -19 81 -34 93 -46 7 -5 37
-16 68 -24 43 -10 59 -11 68 -2 7 7 20 12 30 12 10 0 21 7 24 15 3 8 31 24 62
35 31 12 59 26 62 31 12 18 195 49 295 49 102 -1 236 -27 243 -49 2 -6 12 -11
23 -11 10 0 34 -16 53 -35 20 -19 39 -35 43 -35 5 0 23 -13 40 -29 23 -21 30
-35 26 -50 -3 -11 -11 -21 -17 -21 -7 0 -18 -16 -25 -35 -7 -19 -19 -35 -27
-35 -8 0 -14 -5 -14 -10 0 -6 -11 -22 -24 -34 -12 -13 -26 -32 -30 -41 -3 -9
-15 -19 -26 -22 -11 -3 -20 -11 -20 -18 0 -14 -73 -95 -87 -95 -5 0 -27 -18
-49 -40 -21 -22 -45 -40 -51 -40 -7 0 -18 -9 -25 -20 -7 -11 -18 -20 -24 -20
-6 0 -17 -7 -24 -15 -7 -8 -21 -15 -32 -15 -11 0 -22 -8 -25 -18 -5 -19 -51
-47 -95 -58 -15 -3 -29 -12 -32 -19 -2 -7 -30 -20 -60 -29 -31 -9 -56 -21 -56
-25 0 -5 -19 -14 -42 -19 -113 -27 -183 -47 -188 -52 -6 -8 -128 -30 -163 -30
-14 0 -27 -6 -29 -12 -6 -17 -525 -19 -536 -2 -4 5 -45 16 -92 23 -47 7 -87
16 -90 19 -3 4 -54 19 -115 35 -60 15 -111 32 -113 37 -2 6 -10 10 -18 10 -8
0 -34 9 -56 20 -23 11 -48 20 -55 20 -7 0 -13 4 -13 10 0 5 -11 12 -25 16 -13
3 -29 12 -36 20 -6 8 -20 14 -30 14 -11 0 -19 7 -19 15 0 9 -10 20 -22 25 -39
17 -78 44 -120 83 -16 15 -33 27 -38 27 -4 0 -26 18 -49 40 -22 22 -46 40 -51
40 -6 0 -16 12 -23 27 -6 15 -22 37 -35 50 -12 12 -22 27 -22 33 0 5 -6 10
-14 10 -8 0 -20 14 -28 30 -7 17 -17 30 -21 30 -4 0 -15 16 -23 35 -8 19 -20
35 -28 35 -7 0 -18 19 -25 42 -16 52 -5 76 51 103 22 10 42 25 45 32 3 7 25
22 49 35 24 12 44 28 44 35 0 8 8 16 18 19 30 10 82 38 82 45 0 4 27 17 60 29
33 12 60 26 60 29 0 6 102 40 173 57 15 3 27 9 27 13 0 9 115 31 164 31 20 0
36 5 36 10 0 6 37 10 90 10 53 0 90 -4 90 -10z"/>
</g>
</svg>
